<?xml version="1.0" ?><!DOCTYPE svg  PUBLIC '-//W3C//DTD SVG 1.1//EN'  'http://www.w3.org/Graphics/SVG/1.1/DTD/svg11.dtd'><svg enable-background="new 0 0 32 32" height="32px" version="1.1" viewBox="0 0 32 32" width="32px" xml:space="preserve" xmlns="http://www.w3.org/2000/svg" xmlns:xlink="http://www.w3.org/1999/xlink"><g id="website_favorite_site_star_2_"><g id="website_favorite_site_star_1_"><g id="response_time_3_"><circle cx="7.5" cy="5.5" fill="#263238" id="XMLID_1569_" r="0.5"/><circle cx="5.5" cy="5.5" fill="green" id="XMLID_1568_" r="0.5"/><circle cx="3.5" cy="5.5" fill="#263238" id="XMLID_1567_" r="0.5"/><path d="M30.5,8h-29C1.224,8,1,7.776,1,7.5S1.224,7,1.5,7h29C30.776,7,31,7.224,31,7.5     S30.776,8,30.5,8z" fill="green" id="XMLID_1566_"/><path d="M29.5,3h-27C1.673,3,1,3.673,1,4.5v23C1,28.327,1.673,29,2.5,29h27     c0.827,0,1.5-0.673,1.5-1.5v-23C31,3.673,30.327,3,29.5,3z M30,27.5c0,0.275-0.225,0.5-0.5,0.5h-27C2.225,28,2,27.775,2,27.5v-23     C2,4.225,2.225,4,2.5,4h27C29.775,4,30,4.225,30,4.5V27.5z" fill="green" id="XMLID_3165_"/></g></g><g id="XMLID_1606_"><g id="XMLID_2018_"><path d="M24.5,22h3c0.276,0,0.5-0.224,0.5-0.5S27.776,21,27.5,21h-3c-0.276,0-0.5,0.224-0.5,0.5     S24.224,22,24.5,22z" fill="green" id="XMLID_2019_"/></g><g id="XMLID_2016_"><path d="M17.5,24h3c0.276,0,0.5-0.224,0.5-0.5S20.776,23,20.5,23h-3c-0.276,0-0.5,0.224-0.5,0.5     S17.224,24,17.5,24z" fill="green" id="XMLID_2017_"/></g><g id="XMLID_2014_"><path d="M17.5,26h5c0.276,0,0.5-0.224,0.5-0.5S22.776,25,22.5,25h-5c-0.276,0-0.5,0.224-0.5,0.5     S17.224,26,17.5,26z" fill="green" id="XMLID_2015_"/></g><g id="XMLID_2012_"><path d="M24.5,26h1c0.276,0,0.5-0.224,0.5-0.5S25.776,25,25.5,25h-1c-0.276,0-0.5,0.224-0.5,0.5     S24.224,26,24.5,26z" fill="#263238" id="XMLID_2013_"/></g><g id="XMLID_2010_"><path d="M17.5,22h5c0.276,0,0.5-0.224,0.5-0.5S22.776,21,22.5,21h-5c-0.276,0-0.5,0.224-0.5,0.5     S17.224,22,17.5,22z" fill="#263238" id="XMLID_2011_"/></g><g id="XMLID_2008_"><path d="M22.5,24h5c0.276,0,0.5-0.224,0.5-0.5S27.776,23,27.5,23h-5c-0.276,0-0.5,0.224-0.5,0.5     S22.224,24,22.5,24z" fill="#263238" id="XMLID_2009_"/></g><g id="XMLID_1989_"><path d="M14.5,24h-3c-0.276,0-0.5-0.224-0.5-0.5s0.224-0.5,0.5-0.5h3c0.276,0,0.5,0.224,0.5,0.5     S14.776,24,14.5,24z" fill="#263238" id="XMLID_2007_"/></g><g id="XMLID_1987_"><path d="M12.5,26h-3C9.224,26,9,25.776,9,25.5S9.224,25,9.5,25h3c0.276,0,0.5,0.224,0.5,0.5     S12.776,26,12.5,26z" fill="#263238" id="XMLID_1988_"/></g><g id="XMLID_1611_"><path d="M7.5,26h-3C4.224,26,4,25.776,4,25.5S4.224,25,4.5,25h3C7.776,25,8,25.224,8,25.5     S7.776,26,7.5,26z" fill="#263238" id="XMLID_1612_"/></g><g id="XMLID_1609_"><path d="M15.5,18h-10C5.224,18,5,17.776,5,17.5S5.224,17,5.5,17h10c0.276,0,0.5,0.224,0.5,0.5     S15.776,18,15.5,18z" fill="#263238" id="XMLID_1610_"/></g><g id="XMLID_1985_"><path d="M14.5,22h-10C4.224,22,4,21.776,4,21.5S4.224,21,4.5,21h10c0.276,0,0.5,0.224,0.5,0.5     S14.776,22,14.5,22z" fill="#263238" id="XMLID_1986_"/></g><g id="XMLID_1607_"><path d="M9.5,24h-5C4.224,24,4,23.776,4,23.5S4.224,23,4.5,23h5c0.276,0,0.5,0.224,0.5,0.5     S9.776,24,9.5,24z" fill="#263238" id="XMLID_1608_"/></g></g><g id="XMLID_1990_"><path d="M27.5,18h-23C4.224,18,4,17.776,4,17.5v-7C4,10.224,4.224,10,4.5,10h23    c0.276,0,0.5,0.224,0.5,0.5v7C28,17.776,27.776,18,27.5,18z M5,17h22v-6H5V17z" fill="green" id="XMLID_1991_"/></g></g></svg>